<?xml version="1.0" encoding="UTF-8"?>
<svg xmlns="http://www.w3.org/2000/svg" viewBox="131 332 130 130" fill="currentColor" role="img" aria-label="Evercart">
  <title>Evercart</title>
<path fill-rule="evenodd" fill="currentColor" d="M 159.445312 362.417969 C 161.980469 362.417969 164.515625 362.488281 167.046875 362.40625 C 172.011719 362.242188 175.523438 364.292969 178.011719 368.671875 C 187.144531 384.738281 196.449219 400.710938 205.636719 416.746094 C 209.257812 423.074219 208.261719 428.566406 203.140625 431.433594 C 197.988281 434.320312 192.886719 432.378906 189.203125 426.023438 C 181.59375 412.898438 173.816406 399.855469 166.5625 386.53125 C 164.347656 382.460938 161.804688 380.949219 157.429688 381.433594 C 154.929688 381.707031 152.359375 381.578125 149.835938 381.386719 C 144.214844 380.949219 140.589844 377.269531 140.511719 372.125 C 140.429688 366.742188 144.183594 362.871094 150.09375 362.5 C 153.199219 362.304688 156.328125 362.464844 159.445312 362.464844 Z M 159.445312 362.417969 "/>
<path fill-rule="evenodd" fill="currentColor" d="M 241.09375 424.175781 C 240.816406 427.539062 238.875 430.78125 234.734375 432.09375 C 230.164062 433.539062 226.164062 432.28125 223.617188 428.09375 C 219.886719 421.960938 216.402344 415.679688 212.808594 409.464844 C 206.789062 399.050781 200.714844 388.664062 194.757812 378.214844 C 191.355469 372.238281 192.324219 366.945312 197.148438 363.96875 C 202.082031 360.925781 207.5625 362.773438 211.132812 368.910156 C 220.410156 384.835938 229.617188 400.804688 238.816406 416.777344 C 239.972656 418.78125 241.199219 420.808594 241.09375 424.175781 "/>
<path fill-rule="evenodd" fill="currentColor" d="M 253.097656 387.972656 C 252.929688 391.359375 250.792969 394.460938 246.707031 395.753906 C 242.6875 397.019531 238.75 396.199219 236.375 392.527344 C 232.8125 387.011719 229.398438 381.347656 226.535156 375.453125 C 224.722656 371.71875 225.648438 367.792969 229.007812 364.925781 C 232.304688 362.117188 235.992188 361.761719 239.804688 363.78125 C 243.261719 365.617188 253.171875 383.054688 253.097656 387.972656 "/>
</svg>
